<?xml version="1.0" encoding="utf-8"?>
<!-- Generator: Adobe Illustrator 22.0.0, SVG Export Plug-In . SVG Version: 6.00 Build 0)  -->
<svg version="1.1" id="Capa_1" xmlns="http://www.w3.org/2000/svg" xmlns:xlink="http://www.w3.org/1999/xlink" x="0px" y="0px"
	 viewBox="0 0 512 180" style="enable-background:new 0 0 512 180;" xml:space="preserve">
<style type="text/css">
	.st0{fill:#FFFFFF;}
</style>
<g>
	<g>
		<path class="st0" d="M453.1,26.4c27.7,23.5,27,33.2,27.4,44c1.3,37.2-61,10.4-77.3,0C301.7,5.5,293.9,8.3,257.3,20.5L256,21
			l-1.3-0.5c-36.5-12.2-44.4-15-145.8,49.9c-16.3,10.4-78.6,37.2-77.3,0c0.4-10.8-0.3-20.6,27.4-44c0,0-79.6,2.9-53.8,85.1
			C17.6,151.2,53.3,223,256,125.6c202.7,97.4,238.4,25.6,250.9-14.1C532.7,29.3,453.1,26.4,453.1,26.4z"/>
	</g>
</g>
</svg>
