<svg xmlns="http://www.w3.org/2000/svg" xmlns:xlink="http://www.w3.org/1999/xlink" version="1.1" style="" xml:space="preserve" width="512.0009765625" height="512.0009765625"><rect id="backgroundrect" width="100%" height="100%" x="0" y="0" fill="none" stroke="none"/>



















<g class="currentLayer" style=""><title>Layer 1</title><g id="svg_1" class="" stroke="none" fill="#ffffff" fill-opacity="1">
	<g id="svg_2" stroke="none" stroke-opacity="1" fill="#ffffff" fill-opacity="1">
		<path d="M475.667,187.912H385.26v-56.124c0.011-3.197,0.014-8.401,0.002-17.018l-0.002-1.381    c0-36.247-29.489-65.736-65.735-65.736c-5.903,0-11.781,0.802-17.445,2.359c-12.981-17.802-33.887-28.735-56.441-28.735    c-6.257,0-12.379,0.814-18.305,2.426C214.051,9.626,196.193,1.281,176.79,0.136c-20.178-1.199-39.611,5.548-54.721,18.974    c-6.708,5.961-12.258,13.035-16.445,20.861c-2.72-0.368-5.473-0.557-8.246-0.557c-33.662,0-61.046,27.385-61.046,61.046    c0,16.159,6.277,31.339,17.423,42.692v368.849h331.507V388.07h90.407V187.912H475.667z M355.126,481.863H83.889V253.262h271.236    V481.863z M83.889,223.126v-71.895h29.697c6.697,25.726,30.125,44.77,57.918,44.77c27.793,0,51.221-19.044,57.917-44.77h125.704    v71.895H83.889z M201.206,121.094v15.068c0,16.378-13.325,29.702-29.702,29.702c-16.379,0-29.703-13.325-29.703-29.702v-15.068    H74.359c-5.065-5.631-7.893-12.916-7.893-20.638c0-17.042,13.866-30.908,30.91-30.908c3.652,0,7.221,0.627,10.605,1.862    l0.014,0.005c0.284,0.104,0.566,0.212,0.847,0.324l15.195,6.091l4.814-15.646c2.434-7.912,7.011-15.018,13.236-20.549    c18.772-16.679,47.609-14.975,64.286,3.792c1.246,1.402,2.414,2.907,3.574,4.601l7.24,10.586l11.606-5.456    c5.295-2.488,10.962-3.749,16.847-3.749c15.605,0,29.823,9.214,36.222,23.474l6.621,14.754l14.251-7.645    c5.201-2.791,10.852-4.206,16.795-4.206c19.629,0,35.599,15.97,35.599,35.6l0.002,1.426c0.003,2.348,0.006,4.426,0.007,6.28    H201.206z M445.532,357.934H385.26V218.047h60.271V357.934z" id="svg_3" stroke="none" stroke-opacity="1" fill="#ffffff" fill-opacity="1"/>
	</g>
</g><g id="svg_4" class="" fill="#ffffff" fill-opacity="1">
	<g id="svg_5" fill="#ffffff" fill-opacity="1">
		<rect x="144.16799926757812" y="286.96099853515625" width="30.13599967956543" height="161.6280059814453" id="svg_6" fill="#ffffff" fill-opacity="1"/>
	</g>
</g><g id="svg_7" class="" fill="#ffffff" fill-opacity="1">
	<g id="svg_8" fill="#ffffff" fill-opacity="1">
		<rect x="204.43899536132812" y="286.96099853515625" width="30.13599967956543" height="161.6280059814453" id="svg_9" fill="#ffffff" fill-opacity="1"/>
	</g>
</g><g id="svg_10" class="" fill="#ffffff" fill-opacity="1">
	<g id="svg_11" fill="#ffffff" fill-opacity="1">
		<rect x="264.71099853515625" y="286.96099853515625" width="30.13599967956543" height="161.6280059814453" id="svg_12" fill="#ffffff" fill-opacity="1"/>
	</g>
</g><g id="svg_13">
</g><g id="svg_14">
</g><g id="svg_15">
</g><g id="svg_16">
</g><g id="svg_17">
</g><g id="svg_18">
</g><g id="svg_19">
</g><g id="svg_20">
</g><g id="svg_21">
</g><g id="svg_22">
</g><g id="svg_23">
</g><g id="svg_24">
</g><g id="svg_25">
</g><g id="svg_26">
</g><g id="svg_27">
</g></g></svg>
