<?xml version="1.0" encoding="iso-8859-1"?>
<!-- Generator: Adobe Illustrator 19.0.0, SVG Export Plug-In . SVG Version: 6.00 Build 0)  -->
<svg xmlns="http://www.w3.org/2000/svg" xmlns:xlink="http://www.w3.org/1999/xlink" version="1.1" id="Capa_1" x="0px" y="0px" viewBox="0 0 512.001 512.001" style="enable-background:new 0 0 512.001 512.001;" xml:space="preserve" width="512px" height="512px">
<g>
	<g>
		<path d="M361.084,191.369H322.18c22.439-29.676,20.157-72.219-6.881-99.257c-11.353-11.353-25.444-18.326-40.165-20.956    c0.544-22.715,19.178-41.03,42.021-41.03h25.168V0h-25.168c-39.677,0-71.973,32.187-72.164,71.822    c-13.523,3.037-26.372,9.787-36.876,20.291c-27.037,27.037-29.32,69.581-6.881,99.257h-50.319c-30.433,0-55.19,24.758-55.19,55.19    v265.441h320.549V246.559C416.275,216.127,391.517,191.369,361.084,191.369z M229.419,113.414    c4.576-4.576,9.892-7.966,15.564-10.191v31.163h30.126v-32.32c6.916,2.111,13.428,5.889,18.889,11.349    c17.804,17.805,17.804,46.775,0,64.58c-8.625,8.625-20.092,13.375-32.289,13.375c-12.197,0-23.665-4.75-32.29-13.375    C211.615,160.189,211.615,131.219,229.419,113.414z M125.851,246.56c0.002-13.821,11.246-25.065,25.066-25.065h210.168    c13.821,0,25.064,11.244,25.064,25.064v37.451c-8.47,2.738-14.185,7.455-18.76,11.251c-5.273,4.374-7.92,6.57-14.586,6.57    c-6.666,0-9.312-2.196-14.584-6.57c-6.874-5.703-16.286-13.514-33.824-13.514c-17.536,0-26.948,7.811-33.82,13.514    c-5.271,4.374-7.917,6.57-14.582,6.57c-6.665,0-9.31-2.196-14.582-6.57c-6.873-5.703-16.284-13.514-33.821-13.514    s-26.948,7.811-33.82,13.514c-5.271,4.374-7.917,6.57-14.582,6.57c-6.664,0-9.31-2.196-14.581-6.57    c-4.573-3.796-10.287-8.513-18.757-11.251V246.56z M386.148,481.874H125.853v-30.671h260.296V481.874z M386.148,421.077H125.853    v-30.671h260.296V421.077z M386.151,360.28H125.853v-41.437c6.831,5.662,16.201,13.115,33.337,13.115    c17.537,0,26.949-7.811,33.821-13.515c5.271-4.374,7.917-6.57,14.581-6.57c6.665,0,9.31,2.196,14.582,6.571    c6.873,5.703,16.284,13.514,33.822,13.514s26.949-7.811,33.821-13.515c5.271-4.374,7.917-6.57,14.581-6.57    c6.667,0,9.312,2.196,14.585,6.571c6.873,5.703,16.285,13.514,33.823,13.514c17.142,0,26.514-7.456,33.346-13.118V360.28z" fill="#FFFFFF"/>
	</g>
</g>
<g>
</g>
<g>
</g>
<g>
</g>
<g>
</g>
<g>
</g>
<g>
</g>
<g>
</g>
<g>
</g>
<g>
</g>
<g>
</g>
<g>
</g>
<g>
</g>
<g>
</g>
<g>
</g>
<g>
</g>
</svg>
