<?xml version="1.0" encoding="iso-8859-1"?>
<!-- Generator: Adobe Illustrator 19.0.0, SVG Export Plug-In . SVG Version: 6.00 Build 0)  -->
<svg xmlns="http://www.w3.org/2000/svg" xmlns:xlink="http://www.w3.org/1999/xlink" version="1.1" id="Capa_1" x="0px" y="0px" viewBox="0 0 512 512" style="enable-background:new 0 0 512 512;" xml:space="preserve" width="512px" height="512px">
<g>
	<g>
		<path d="M271.051,301.145L498.199,0H13.801l227.147,301.145v180.751H139.406V512h233.188v-30.104H271.051V301.145z     M304.522,206.78l-4,5.302c-4.016,3.944-9.515,6.382-15.575,6.382c-12.267,0-22.247-9.981-22.247-22.248    s9.979-22.247,22.247-22.247c12.267,0,22.247,9.979,22.247,22.247C307.194,200.036,306.226,203.635,304.522,206.78z     M331.102,171.541c-3.543-6.603-8.464-12.357-14.374-16.885l21.096-29.959h28.611L331.102,171.541z M74.215,30.104h363.57    l-48.642,64.489h-30.12l17.143-24.346l-24.614-17.331l-29.349,41.677H122.857L74.215,30.104z M145.565,124.697h155.441    l-13.543,19.232c-0.834-0.04-1.672-0.064-2.516-0.064c-28.867,0-52.351,23.484-52.351,52.351    c0,25.076,17.724,46.079,41.299,51.167l-17.896,23.725L145.565,124.697z" fill="#FFFFFF"/>
	</g>
</g>
<g>
</g>
<g>
</g>
<g>
</g>
<g>
</g>
<g>
</g>
<g>
</g>
<g>
</g>
<g>
</g>
<g>
</g>
<g>
</g>
<g>
</g>
<g>
</g>
<g>
</g>
<g>
</g>
<g>
</g>
</svg>
